<?xml version="1.0" ?><!DOCTYPE svg  PUBLIC '-//W3C//DTD SVG 1.1//EN'  'http://www.w3.org/Graphics/SVG/1.1/DTD/svg11.dtd'><svg enable-background="new 0 0 48 48" height="48px" id="Layer_4" version="1.1" viewBox="0 0 48 48" width="48px" xml:space="preserve" xmlns="http://www.w3.org/2000/svg" xmlns:xlink="http://www.w3.org/1999/xlink"><g><path d="M27.412,8.405C26.314,8.149,25.176,8,24,8s-2.314,0.149-3.412,0.405C8.451,10.889,0,24,0,24   s10.062,15.625,24,16c13.938-0.375,24-16,24-16S39.549,10.889,27.412,8.405z M24,36c-6.627,0-12-5.373-12-12   c0-6.628,5.373-12,12-12s12,5.373,12,12C36,30.627,30.627,36,24,36z" fill="#241F20"/><path d="M24,16L24,16l0,8l-5.657-5.657C16.896,19.791,16,21.791,16,24c0,4.418,3.582,8,8,8c4.417,0,8-3.582,8-8   S28.418,16,24,16z" fill="#241F20"/></g></svg>